<?xml version="1.0" standalone="no"?><!DOCTYPE svg PUBLIC "-//W3C//DTD SVG 1.1//EN" "http://www.w3.org/Graphics/SVG/1.1/DTD/svg11.dtd"><svg height="223" node-id="1" sillyvg="true" template-height="223" template-width="254" version="1.1" viewBox="0 0 254 223" width="254" xmlns="http://www.w3.org/2000/svg" xmlns:xlink="http://www.w3.org/1999/xlink"><defs node-id="22"></defs><g node-id="24"><g node-id="25"><g node-id="26"><g node-id="27"><g node-id="28"><path d="M 65.53 71.51 L 69.13 68.30 L 72.17 64.84 L 74.68 61.09 L 76.70 57.07 L 78.17 52.94 L 79.10 48.69 L 79.48 44.36 L 79.30 40.08 L 78.56 35.83 L 77.25 31.72 L 75.35 27.81 L 72.83 24.04 L 70.57 21.49 L 68.19 19.38 L 65.70 17.67 L 63.08 16.33 L 59.35 15.04 L 55.47 14.34 L 51.40 14.21 L 47.33 14.63 L 43.20 15.55 L 38.97 17.01 L 34.90 18.90 L 30.90 21.23 L 26.95 24.04 L 23.23 27.23 L 20.07 30.50 L 17.44 33.86 L 15.28 37.31 L 13.53 41.03 L 12.38 44.73 L 11.77 48.45 L 11.71 52.22 L 12.21 55.92 L 13.34 59.60 L 15.13 63.32 L 17.66 67.11 L 20.71 70.46 L 24.05 73.25 L 27.73 75.51 L 31.68 77.26 L 35.79 78.47 L 40.09 79.14 L 44.44 79.27 L 48.80 78.84 L 53.20 77.85 L 57.44 76.33 L 61.54 74.23 L 65.53 71.51 Z" fill="#4d4149" fill-rule="evenodd" group-id="1,2,3,4,5" id="椭圆形备份-12" node-id="9" stroke="none" target-height="65.06" target-width="67.770004" target-x="11.71" target-y="14.21"></path></g><g node-id="29"><path d="M 186.16 74.24 L 190.09 77.02 L 194.16 79.20 L 198.37 80.80 L 202.76 81.86 L 207.11 82.36 L 211.46 82.31 L 215.78 81.71 L 219.90 80.58 L 223.88 78.90 L 227.60 76.70 L 230.99 73.97 L 234.09 70.67 L 236.07 67.89 L 237.66 65.03 L 238.87 62.08 L 239.72 59.03 L 240.33 54.83 L 240.35 50.59 L 239.80 46.28 L 238.70 42.06 L 237.08 37.94 L 234.91 33.90 L 232.30 30.13 L 229.22 26.62 L 225.64 23.37 L 221.72 20.56 L 217.76 18.38 L 213.73 16.77 L 209.54 15.67 L 205.42 15.14 L 201.32 15.15 L 197.27 15.71 L 193.37 16.82 L 189.58 18.47 L 186.06 20.63 L 182.77 23.34 L 179.69 26.65 L 177.10 30.37 L 175.13 34.25 L 173.75 38.34 L 172.94 42.58 L 172.68 46.85 L 172.99 51.19 L 173.85 55.45 L 175.24 59.60 L 177.20 63.66 L 179.64 67.45 L 182.61 70.97 L 186.16 74.24 Z" fill="#4d4149" fill-rule="evenodd" group-id="1,2,3,4,6" id="椭圆形备份-13" node-id="10" stroke="none" target-height="67.22" target-width="67.67001" target-x="172.68" target-y="15.14"></path></g><path d="M 121.50 220.43 L 130.40 220.26 L 138.97 219.74 L 147.22 218.89 L 155.16 217.70 L 163.13 216.10 L 170.64 214.14 L 177.72 211.84 L 184.40 209.19 L 190.93 206.04 L 196.93 202.52 L 202.42 198.63 L 207.45 194.36 L 211.17 190.60 L 214.54 186.57 L 217.55 182.25 L 220.23 177.63 L 222.57 172.69 L 224.44 167.67 L 225.94 162.30 L 227.05 156.53 L 227.74 150.33 L 228.00 143.66 L 227.75 137.05 L 227.08 130.63 L 225.99 124.37 L 224.49 118.26 L 222.57 112.29 L 219.61 105.01 L 216.11 98.05 L 212.06 91.41 L 207.45 85.05 L 202.36 79.08 L 196.84 73.52 L 190.86 68.35 L 184.40 63.57 L 177.62 59.30 L 170.51 55.53 L 163.03 52.26 L 155.16 49.48 L 148.78 47.70 L 142.23 46.30 L 135.51 45.28 L 128.61 44.66 L 121.50 44.43 L 114.39 44.66 L 107.49 45.28 L 100.77 46.30 L 94.22 47.70 L 87.84 49.48 L 79.97 52.26 L 72.49 55.53 L 65.38 59.30 L 58.60 63.57 L 52.14 68.35 L 46.16 73.52 L 40.64 79.08 L 35.55 85.05 L 30.94 91.41 L 26.89 98.05 L 23.39 105.01 L 20.43 112.29 L 18.51 118.26 L 17.01 124.37 L 15.92 130.63 L 15.25 137.05 L 15.00 143.66 L 15.26 150.33 L 15.95 156.53 L 17.06 162.30 L 18.56 167.67 L 20.43 172.69 L 22.77 177.63 L 25.45 182.25 L 28.46 186.57 L 31.83 190.60 L 35.55 194.36 L 40.58 198.63 L 46.07 202.52 L 52.07 206.04 L 58.60 209.19 L 65.28 211.84 L 72.36 214.14 L 79.87 216.10 L 87.84 217.70 L 95.78 218.89 L 104.03 219.74 L 112.60 220.26 L 121.50 220.43 Z" fill="#fffaee" fill-rule="evenodd" group-id="1,2,3,4" id="椭圆形" node-id="11" stroke="none" target-height="176" target-width="213" target-x="15" target-y="44.43"></path><path d="M 62.10 112.04 L 65.38 108.47 L 68.73 105.36 L 72.16 102.70 L 75.82 100.36 L 79.38 98.52 L 82.86 97.16 L 86.47 96.21 L 89.82 95.78 L 92.95 95.83 L 96.00 96.41 L 98.72 97.50 L 101.17 99.13 L 103.19 101.24 L 104.55 103.48 L 105.32 105.91 L 105.50 108.59 L 105.15 111.23 L 104.24 114.11 L 102.70 117.28 L 100.40 120.80 L 97.89 123.91 L 94.73 127.23 L 90.85 130.77 L 86.14 134.54 L 80.83 138.82 L 76.70 142.59 L 70.12 149.24 L 67.43 151.91 L 65.27 153.69 L 63.78 154.58 L 62.37 155.04 L 60.99 155.12 L 59.64 154.84 L 58.05 154.08 L 56.16 152.71 L 54.13 150.59 L 52.58 148.11 L 51.49 145.20 L 50.89 142.13 L 50.73 138.76 L 51.04 135.05 L 51.78 131.39 L 52.97 127.56 L 54.65 123.56 L 56.67 119.72 L 59.15 115.88 L 62.10 112.04 Z" fill="#4d4149" fill-rule="evenodd" group-id="1,2,3,4,7" id="椭圆形备份-14" node-id="12" stroke="none" target-height="59.339996" target-width="54.77" target-x="50.73" target-y="95.78"></path><path d="M 95.00 113.43 L 94.75 115.30 L 94.04 116.96 L 92.95 118.38 L 91.53 119.47 L 89.88 120.17 L 88.00 120.43 L 86.12 120.17 L 84.47 119.47 L 83.05 118.38 L 81.96 116.96 L 81.25 115.30 L 81.00 113.43 L 81.25 111.55 L 81.96 109.89 L 83.05 108.48 L 84.47 107.38 L 86.12 106.68 L 88.00 106.43 L 89.88 106.68 L 91.53 107.38 L 92.95 108.48 L 94.04 109.89 L 94.75 111.55 L 95.00 113.43 Z" fill="#060100" fill-rule="evenodd" group-id="1,2,3,4" id="Oval" node-id="13" stroke="none" target-height="14" target-width="14" target-x="81" target-y="106.43"></path><path d="M 119.07 146.43 L 118.34 146.70 L 118.03 147.40 L 118.06 151.10 L 118.38 154.17 L 118.93 156.73 L 119.83 159.17 L 120.97 161.20 L 122.35 162.87 L 123.72 164.11 L 125.21 165.10 L 126.88 165.91 L 129.11 166.72 L 129.83 166.95 L 130.61 167.18 L 131.02 167.29 L 131.88 167.53 L 132.33 167.65 L 133.98 168.05 L 134.69 168.19 L 136.63 168.52 L 137.46 168.63 L 138.33 168.74 L 139.22 168.84 L 140.15 168.93 L 141.11 169.02 L 142.11 169.09 L 143.13 169.16 L 143.66 169.19 L 144.74 169.25 L 145.85 169.30 L 146.99 169.34 L 148.16 169.37 L 149.37 169.40 L 150.61 169.41 L 151.88 169.42 L 153.19 169.43 L 154.52 169.42 L 155.90 169.41 L 157.30 169.38 L 158.01 169.37 L 158.72 169.06 L 159.00 168.34 L 158.69 167.63 L 157.97 167.34 L 155.89 167.38 L 154.54 167.39 L 153.22 167.40 L 151.30 167.39 L 150.07 167.38 L 149.46 167.37 L 148.28 167.35 L 147.12 167.32 L 146.00 167.28 L 145.45 167.25 L 144.38 167.20 L 143.34 167.14 L 142.34 167.08 L 141.37 167.00 L 140.43 166.92 L 139.97 166.88 L 139.08 166.79 L 138.22 166.69 L 137.00 166.52 L 136.22 166.40 L 135.48 166.28 L 134.43 166.07 L 133.77 165.93 L 132.85 165.70 L 132.00 165.46 L 131.20 165.24 L 130.82 165.13 L 130.11 164.91 L 129.77 164.80 L 129.13 164.59 L 127.38 163.91 L 126.05 163.23 L 124.86 162.42 L 123.78 161.44 L 122.60 160.01 L 121.61 158.22 L 120.83 156.03 L 120.34 153.73 L 120.06 150.91 L 120.04 147.47 L 119.77 146.75 L 119.07 146.43 Z" fill="#dbd6cb" fill-rule="nonzero" group-id="1,2,3,4,8" id="路径-5" node-id="14" stroke="none" target-height="23" target-width="40.97" target-x="118.03" target-y="146.43"></path><path d="M 118.46 146.43 L 119.11 146.71 L 119.38 147.42 L 119.41 149.14 L 119.44 150.73 L 119.47 151.73 L 119.52 153.13 L 119.55 154.00 L 119.59 154.84 L 119.63 155.63 L 119.70 156.66 L 119.85 158.64 L 119.92 159.59 L 119.98 160.50 L 120.00 160.92 L 120.00 161.13 L 119.99 161.34 L 119.98 161.60 L 119.95 161.86 L 119.92 162.14 L 119.87 162.43 L 119.84 162.59 L 119.74 163.13 L 119.60 163.77 L 119.42 164.53 L 119.35 164.82 L 118.58 166.79 L 117.49 168.14 L 116.07 169.00 L 114.22 169.40 L 111.77 169.26 L 111.18 168.86 L 111.01 168.11 L 111.37 167.46 L 112.05 167.27 L 113.96 167.42 L 115.35 167.15 L 116.37 166.57 L 117.11 165.65 L 117.60 164.31 L 117.82 163.34 L 117.95 162.76 L 118.02 162.43 L 118.09 162.01 L 118.14 161.65 L 118.17 161.34 L 118.18 161.14 L 118.18 160.94 L 118.16 160.45 L 118.08 159.30 L 117.87 156.53 L 117.82 155.76 L 117.76 154.54 L 117.70 153.22 L 117.67 152.29 L 117.64 151.30 L 117.61 150.27 L 117.59 149.18 L 117.57 147.44 L 117.82 146.73 L 118.46 146.43 Z" fill="#dbd6cb" fill-rule="nonzero" group-id="1,2,3,4" id="路径-5" node-id="15" stroke="none" target-height="22.970001" target-width="8.989998" target-x="111.01" target-y="146.43"></path><path d="M 109.70 136.58 L 111.04 135.24 L 112.48 134.20 L 114.04 133.43 L 116.53 132.79 L 119.03 132.80 L 120.66 133.17 L 122.18 133.83 L 123.62 134.81 L 124.96 136.23 L 125.72 137.61 L 126.00 139.00 L 125.84 140.45 L 125.29 141.81 L 124.29 143.22 L 122.73 144.70 L 120.46 146.29 L 118.36 147.72 L 116.88 148.97 L 114.64 151.07 L 113.70 151.68 L 112.80 151.84 L 111.84 151.57 L 110.38 150.57 L 109.17 149.33 L 108.25 147.95 L 107.60 146.41 L 107.16 143.95 L 107.36 141.39 L 107.84 139.72 L 108.62 138.12 L 109.70 136.58 Z" fill="#4d4149" fill-rule="evenodd" group-id="1,2,3,4,9" id="椭圆形备份-16" node-id="16" stroke="none" target-height="19.050003" target-width="18.839996" target-x="107.16" target-y="132.79"></path><path d="M 177.08 110.95 L 173.45 107.73 L 169.79 105.00 L 166.10 102.71 L 162.21 100.76 L 158.48 99.31 L 154.88 98.32 L 151.19 97.75 L 147.82 97.67 L 144.70 98.05 L 141.73 98.94 L 139.14 100.31 L 136.88 102.19 L 135.08 104.50 L 133.97 106.87 L 133.46 109.36 L 133.56 112.04 L 134.19 114.63 L 135.39 117.40 L 137.25 120.39 L 139.91 123.65 L 142.73 126.49 L 146.22 129.46 L 150.45 132.57 L 155.53 135.84 L 161.26 139.54 L 165.76 142.85 L 173.00 148.78 L 175.96 151.15 L 178.29 152.70 L 179.86 153.43 L 181.31 153.74 L 182.69 153.68 L 184.01 153.25 L 185.50 152.34 L 187.24 150.78 L 189.04 148.45 L 190.32 145.82 L 191.11 142.82 L 191.38 139.70 L 191.19 136.33 L 190.49 132.67 L 189.37 129.11 L 187.79 125.43 L 185.70 121.62 L 183.28 118.01 L 180.42 114.46 L 177.08 110.95 Z" fill="#4d4149" fill-rule="evenodd" group-id="1,2,3,4,10" id="椭圆形备份-15" node-id="17" stroke="none" target-height="56.070007" target-width="57.92" target-x="133.46" target-y="97.67"></path><path d="M 156.00 111.43 L 155.75 113.30 L 155.04 114.96 L 153.95 116.38 L 152.53 117.47 L 150.88 118.17 L 149.00 118.43 L 147.12 118.17 L 145.47 117.47 L 144.05 116.38 L 142.96 114.96 L 142.25 113.30 L 142.00 111.43 L 142.25 109.55 L 142.96 107.89 L 144.05 106.48 L 145.47 105.38 L 147.12 104.68 L 149.00 104.43 L 150.88 104.68 L 152.53 105.38 L 153.95 106.48 L 155.04 107.89 L 155.75 109.55 L 156.00 111.43 Z" fill="#060100" fill-rule="evenodd" group-id="1,2,3,4" id="Oval" node-id="18" stroke="none" target-height="14" target-width="14" target-x="142" target-y="104.43"></path><path d="M 117.00 169.10 L 124.65 172.63 L 129.71 174.48 L 132.89 175.18 L 136.61 175.42 L 139.79 175.29 L 142.51 174.83 L 145.12 173.99 L 147.18 172.91 L 148.77 171.60 L 150.00 169.98 L 150.73 168.16 L 151.00 166.07 L 150.87 158.15 L 150.63 155.53 L 150.28 153.93 L 149.69 152.59 L 148.88 151.50 L 146.36 148.97 L 144.65 147.58 L 142.89 146.76 L 141.02 146.44 L 138.98 146.62 L 137.05 147.23 L 134.89 148.38 L 132.45 150.17 L 129.66 152.77 L 127.18 155.18 L 125.39 156.72 L 122.61 158.85 L 121.64 159.66 L 120.95 160.48 L 120.45 161.45 L 120.04 162.95 L 119.24 165.83 L 118.21 167.81 L 117.00 169.10 Z" fill="#f46145" fill-rule="evenodd" group-id="1,2,3,4" id="路径-6" node-id="19" stroke="none" target-height="28.979996" target-width="34" target-x="117" target-y="146.44"></path><path d="M 142.49 161.42 L 142.35 161.05 L 141.99 160.89 L 141.62 161.03 L 141.46 161.38 L 141.09 164.64 L 140.24 167.39 L 138.95 169.70 L 137.21 171.67 L 137.05 172.02 L 137.18 172.39 L 137.54 172.56 L 137.91 172.43 L 139.79 170.30 L 141.18 167.80 L 142.09 164.88 L 142.49 161.42 Z" fill="#d04d34" fill-rule="nonzero" group-id="1,2,3,4,11" id="路径-7" node-id="20" stroke="none" target-height="11.669998" target-width="5.4400024" target-x="137.05" target-y="160.89"></path></g></g></g></g></svg>